<svg width="106" height="37" viewBox="0 0 106 37" fill="none" xmlns="http://www.w3.org/2000/svg">
<path d="M33.4231 3.66667V5.33333M33.4231 12V13.6667M33.4231 20.3333V22M33.4231 28.6667V30.3333M13.5769 18.6667H25.1538M13.5769 23.6667H20.1923M4.48077 2C3.11068 2 2 3.11929 2 4.5V11.2252C3.97734 12.3779 5.30769 14.5324 5.30769 17C5.30769 19.4676 3.97734 21.6221 2 22.7748V29.5C2 30.8807 3.11068 32 4.48077 32H42.5192C43.8893 32 45 30.8807 45 29.5V22.7748C43.0227 21.6221 41.6923 19.4676 41.6923 17C41.6923 14.5324 43.0227 12.3779 45 11.2252V4.5C45 3.11929 43.8893 2 42.5192 2H4.48077Z" stroke="#F3F7FD" stroke-width="3" stroke-linecap="round" stroke-linejoin="round"/>
<path d="M55.18 25.64C54.8733 25.64 54.5067 25.3867 54.08 24.88C53.6533 24.36 53.44 23.94 53.44 23.62C53.44 23.3 53.6 22.64 53.92 21.64C54.9067 18.5733 55.4333 15.8867 55.5 13.58C55.0467 13.1 54.82 12.72 54.82 12.44C54.82 12 55.34 11.5867 56.38 11.2C57.4333 10.8 58.4333 10.6 59.38 10.6C60.98 10.6 62.24 10.9733 63.16 11.72C64.0933 12.4667 64.56 13.42 64.56 14.58C64.56 16.06 63.8333 17.4 62.38 18.6C60.94 19.8 59.12 20.62 56.92 21.06C56.2933 23.3133 55.88 24.64 55.68 25.04C55.4933 25.44 55.3267 25.64 55.18 25.64ZM61.72 14.64C61.72 14.2133 61.5667 13.8667 61.26 13.6C60.9533 13.32 60.54 13.18 60.02 13.18C59.5 13.18 58.78 13.4267 57.86 13.92C58.1267 14.3867 58.26 14.8067 58.26 15.18C58.26 15.9133 58.0667 17 57.68 18.44C58.88 17.96 59.8533 17.3867 60.6 16.72C61.3467 16.04 61.72 15.3467 61.72 14.64ZM71.4966 15.94C71.6032 15.6067 71.8166 15.44 72.1366 15.44C72.4566 15.44 72.8232 15.7133 73.2366 16.26C73.6632 16.8067 73.8766 17.28 73.8766 17.68C73.8766 17.8267 73.5699 18.8067 72.9566 20.62C72.3432 22.4333 71.8699 23.8667 71.5366 24.92C71.3499 25.48 71.0366 25.76 70.5966 25.76C70.3299 25.76 70.1032 25.6667 69.9166 25.48C69.7432 25.28 69.6566 24.9733 69.6566 24.56C69.6566 24.1467 69.7366 23.56 69.8966 22.8C68.5232 24.7733 67.4299 25.76 66.6166 25.76C66.1899 25.76 65.6766 25.4867 65.0766 24.94C64.4766 24.38 64.1766 23.84 64.1766 23.32C64.1766 22.04 64.5366 20.4067 65.2566 18.42C65.9899 16.4333 66.6766 15.44 67.3166 15.44C67.7032 15.44 68.0432 15.6133 68.3366 15.96C68.6432 16.3067 68.7966 16.6867 68.7966 17.1C68.7966 17.26 68.6299 17.7067 68.2966 18.44C67.2832 20.64 66.7766 22.1933 66.7766 23.1C66.7766 23.18 66.8099 23.22 66.8766 23.22C67.0766 23.22 67.4499 22.9067 67.9966 22.28C68.5566 21.64 69.1766 20.7333 69.8566 19.56C70.5499 18.3733 71.0966 17.1667 71.4966 15.94ZM81.9631 15.46C82.5765 15.46 83.1565 15.8 83.7031 16.48C84.2631 17.16 84.5431 17.8067 84.5431 18.42C84.5431 19.0333 84.4031 19.7533 84.1231 20.58C83.8431 21.4067 83.4698 22.2067 83.0031 22.98C82.5365 23.7533 81.9498 24.4067 81.2431 24.94C80.5365 25.4733 79.7965 25.74 79.0231 25.74C78.2631 25.74 77.3965 25.3733 76.4231 24.64C76.1565 25.3867 75.9365 25.76 75.7631 25.76C75.4831 25.76 75.1298 25.5267 74.7031 25.06C74.2765 24.5933 74.0631 24.2133 74.0631 23.92C74.0631 23.6267 74.2831 22.6667 74.7231 21.04C76.0431 16.16 76.7031 12.6267 76.7031 10.44C76.7031 10.04 76.8965 9.84 77.2831 9.84C77.5898 9.84 78.0031 10.1333 78.5231 10.72C79.0431 11.2933 79.3031 11.8333 79.3031 12.34C79.3031 13.5267 78.9631 15.3733 78.2831 17.88C79.8031 16.2667 81.0298 15.46 81.9631 15.46ZM78.7231 23.44C79.4565 23.44 80.2031 22.8667 80.9631 21.72C81.7365 20.5733 82.1231 19.4467 82.1231 18.34C82.1231 18.26 82.1031 18.2133 82.0631 18.2C82.0365 18.1733 81.9498 18.16 81.8031 18.16C81.0698 18.16 80.2831 18.6 79.4431 19.48C78.6165 20.36 77.8831 21.46 77.2431 22.78C77.8031 23.22 78.2965 23.44 78.7231 23.44ZM88.3708 9.84C88.6908 9.84 89.1041 10.1333 89.6108 10.72C90.1174 11.3067 90.3708 11.8667 90.3708 12.4C90.3708 12.9333 90.2908 13.8867 90.1308 15.26C89.9708 16.62 89.8041 17.7067 89.6308 18.52C88.5241 23.3467 87.7508 25.76 87.3108 25.76C87.0174 25.76 86.6508 25.5267 86.2108 25.06C85.7841 24.58 85.5708 24.1867 85.5708 23.88C85.5708 23.8533 85.7508 23.16 86.1108 21.8C86.4708 20.44 86.8308 18.6933 87.1908 16.56C87.5641 14.4133 87.7508 12.3667 87.7508 10.42C87.7508 10.0333 87.9574 9.84 88.3708 9.84ZM92.8233 12.94C92.8233 12.5933 92.9766 12.24 93.2833 11.88C93.6033 11.5067 93.9099 11.32 94.2033 11.32C94.5099 11.32 94.8699 11.68 95.2833 12.4C95.6966 13.12 95.9033 13.6467 95.9033 13.98C95.9033 14.3 95.7966 14.5467 95.5833 14.72C95.3699 14.8933 95.1499 14.98 94.9233 14.98C94.5366 14.98 94.0899 14.7267 93.5833 14.22C93.0766 13.7133 92.8233 13.2867 92.8233 12.94ZM93.1233 15.44C93.5899 15.44 94.0033 15.7067 94.3633 16.24C94.7366 16.7733 94.9233 17.2867 94.9233 17.78C94.9233 18.0333 94.6899 18.9467 94.2233 20.52C93.7699 22.08 93.3166 23.56 92.8633 24.96C92.7033 25.48 92.3766 25.74 91.8833 25.74C91.5899 25.74 91.3299 25.6333 91.1033 25.42C90.8899 25.1933 90.7833 24.9067 90.7833 24.56C90.7833 24.2 90.9499 23.32 91.2833 21.92C91.6299 20.5067 91.8899 19.3067 92.0633 18.32C92.2499 17.32 92.4166 16.5933 92.5633 16.14C92.7233 15.6733 92.9099 15.44 93.1233 15.44ZM102.539 27.28C103.165 26.9867 103.639 26.84 103.959 26.84C104.292 26.84 104.545 26.94 104.719 27.14C104.905 27.34 104.999 27.5333 104.999 27.72C104.999 27.9067 104.892 28.0867 104.679 28.26C104.465 28.4467 104.119 28.6867 103.639 28.98C103.172 29.2867 102.692 29.6267 102.199 30C101.719 30.3733 101.332 30.6533 101.039 30.84C100.759 31.0267 100.505 31.12 100.279 31.12C100.065 31.12 99.8253 30.9267 99.5586 30.54C99.3053 30.1533 99.1786 29.7933 99.1786 29.46C99.1786 29.14 99.7053 27.66 100.759 25.02C100.025 25.5133 99.3786 25.76 98.8186 25.76C98.2586 25.76 97.6653 25.4267 97.0386 24.76C96.4253 24.08 96.1186 23.4667 96.1186 22.92C96.1186 22.3733 96.2919 21.6867 96.6386 20.86C96.9986 20.0333 97.4586 19.22 98.0186 18.42C98.5786 17.6067 99.2519 16.9067 100.039 16.32C100.825 15.7333 101.565 15.44 102.259 15.44C102.965 15.44 103.612 15.7533 104.199 16.38C104.785 17.0067 105.079 17.5933 105.079 18.14C105.079 18.5133 104.905 18.7 104.559 18.7C104.412 18.7 104.152 18.5667 103.779 18.3C103.419 18.02 103.139 17.88 102.939 17.88C102.352 17.88 101.692 18.24 100.959 18.96C100.225 19.6667 99.6186 20.4267 99.1386 21.24C98.6586 22.04 98.4186 22.62 98.4186 22.98C98.4186 23.1 98.4386 23.1733 98.4786 23.2C98.5186 23.2267 98.6186 23.24 98.7786 23.24C99.2986 23.2267 99.9986 22.84 100.879 22.08C101.772 21.3067 102.345 20.3667 102.599 19.26C102.652 19.0333 102.812 18.92 103.079 18.92C103.359 18.92 103.772 19.1067 104.319 19.48C104.865 19.84 105.139 20.1267 105.139 20.34C105.139 20.54 105.019 20.96 104.779 21.6C104.539 22.2267 104.179 23.1267 103.699 24.3C103.232 25.46 102.845 26.4533 102.539 27.28Z" fill="white"/>
</svg>
